<svg width="39" height="36" viewBox="0 0 39 36" fill="none" xmlns="http://www.w3.org/2000/svg">
<path d="M28.7039 3.88797C26.2079 6.47997 24.6479 10.368 25.1159 14.616C24.6479 14.688 24.8039 14.688 24.3359 14.76C23.2439 10.224 24.3359 5.68797 26.8319 2.30397C26.9879 2.01597 27.4559 2.01597 27.6899 2.23197C28.0019 2.51997 28.3919 2.87997 28.7039 3.16797C28.9379 3.31197 28.9379 3.67197 28.7039 3.88797Z" fill="#3A7D3C"/>
<path d="M24.882 13.752C24.804 13.752 24.726 13.392 24.726 12.744C24.648 10.08 25.662 6.84 27.846 4.176C28.08 3.816 28.47 3.528 28.47 3.312C28.47 3.24 28.47 3.168 28.392 3.024C28.314 2.88 28.08 2.808 27.924 2.736C27.534 2.52 27.222 2.448 27.066 2.592C26.286 3.024 24.726 6.48 24.258 9.288C23.946 11.52 24.102 12.888 23.946 12.96C23.868 12.96 23.478 11.592 23.712 9.288C24.024 6.264 25.584 2.664 26.676 2.016C26.988 1.872 27.3 1.8 27.612 1.872C27.924 1.944 28.158 2.016 28.392 2.16C28.626 2.304 28.86 2.448 29.016 2.592C30.108 3.528 28.548 4.248 27.144 6.624C26.364 7.92 25.896 9.144 25.584 10.224C25.038 12.384 25.038 13.752 24.882 13.752Z" fill="black"/>
<path d="M24.414 12.888C20.982 11.952 16.926 12.888 14.274 15.192C9.12603 19.584 9.51603 27.432 15.6 31.392C22.152 35.64 34.944 34.704 37.518 25.272C39.39 18.216 33.228 11.376 24.414 12.888Z" fill="#E96024"/>
<path opacity="0.05" d="M30.1859 32.976C25.5839 34.632 17.3159 34.128 13.1819 29.376C16.8479 32.184 23.7899 32.976 28.3139 31.32C35.4119 28.8 38.3759 20.52 33.6959 14.832C40.3259 19.224 38.9219 29.808 30.1859 32.976Z" fill="black"/>
<path d="M24.4141 12.888C24.4141 12.888 24.6481 12.816 25.1941 12.672C25.7401 12.6 26.5201 12.528 27.5341 12.528C28.5481 12.6 29.7961 12.744 31.2001 13.176C39.6241 15.984 40.8721 27.504 32.0581 32.4C27.6901 34.92 20.5141 34.56 16.1461 32.112C9.6721 28.584 8.3461 20.52 13.4161 15.48C16.3021 12.672 20.5141 11.808 23.6341 12.528C24.1801 12.816 24.4141 12.888 24.4141 12.888C24.4141 12.888 18.1741 11.52 13.8841 15.912C7.9561 21.96 11.2321 33.048 24.1021 33.408C39.0001 33.912 41.5741 17.568 31.1221 13.68C29.7961 13.176 28.6261 12.96 27.6121 12.888C25.5841 12.744 24.4141 12.96 24.4141 12.888Z" fill="black"/>
<path d="M21.2159 10.512C20.4359 12.816 18.0959 12.312 15.8339 12.096C11.8559 11.664 8.42393 12.528 1.32593 13.824C3.35393 11.736 5.38193 9.57605 7.87793 8.42405C12.2459 6.26405 17.3159 7.63205 21.2159 10.512Z" fill="#387B3B"/>
<path d="M21.06 10.872C20.67 11.592 20.358 11.952 19.422 12.24C18.33 12.528 17.16 12.312 15.6 12.168C13.65 11.952 11.232 12.096 8.658 12.6C-0.155997 14.112 0.234003 14.616 1.404 13.392C4.914 9.79196 8.736 5.83196 15.522 7.63196C17.472 8.13596 18.876 8.92796 19.812 9.50396C19.89 9.57596 21.216 10.44 21.216 10.512C21.216 10.512 20.67 10.152 19.734 9.64796C11.076 4.82396 6.318 8.92796 1.872 13.536C7.956 12.384 11.856 11.52 15.678 11.952C16.692 12.096 17.55 12.24 18.33 12.24C19.812 12.24 20.436 11.664 21.06 10.872C21.216 10.368 21.216 10.368 21.06 10.872Z" fill="black"/>
<path d="M24.1019 8.85596C24.1799 8.85596 24.1799 9.07196 24.1019 9.43196C23.7899 10.368 22.5419 11.016 21.5279 10.656C21.1379 10.512 20.9819 10.368 20.9819 10.368C20.9819 10.296 21.2159 10.368 21.6059 10.44C21.9959 10.512 22.4639 10.44 22.9319 10.224C23.3999 10.008 23.7119 9.64796 23.8679 9.35996C23.9459 9.07196 24.0239 8.85596 24.1019 8.85596Z" fill="black"/>
<path d="M2.33995 13.104C7.09795 10.008 15.756 8.85597 20.436 10.224C23.322 11.016 17.628 9.28797 11.154 10.368C8.42395 10.8 6.00595 11.592 4.36795 12.24C2.80795 12.96 0.701953 14.256 2.33995 13.104Z" fill="black"/>
<path d="M12.8699 9.79195C12.7919 9.86395 12.1679 9.21595 11.2319 8.63995C10.2959 8.06395 9.43793 7.77595 9.43793 7.70395C9.43793 7.63195 10.4519 7.70395 11.4659 8.35195C12.4799 8.99995 12.9479 9.79195 12.8699 9.79195ZM16.0679 9.71995C15.9899 9.79195 15.4439 9.14395 14.7419 8.56795C14.0399 7.91995 13.3379 7.48795 13.4159 7.41595C13.4939 7.34395 14.2739 7.63195 15.0539 8.27995C15.7559 8.92795 16.1459 9.64795 16.0679 9.71995ZM18.3299 9.93595C18.2519 10.008 17.8619 9.57595 17.4719 9.14395C17.0819 8.71195 16.6919 8.27995 16.7699 8.20795C16.8479 8.13595 17.3159 8.42395 17.7839 8.85595C18.2519 9.35995 18.4859 9.86395 18.3299 9.93595ZM15.5219 12.168C15.4439 12.096 16.0679 11.376 17.0819 10.728C18.1739 10.08 19.1879 10.008 19.1879 10.152C19.1879 10.224 18.2519 10.512 17.3159 11.088C16.3019 11.592 15.5999 12.24 15.5219 12.168ZM13.0259 11.952C12.9479 11.952 13.1039 11.232 13.6499 10.584C14.1959 9.93595 14.8979 9.64795 14.9759 9.71995C15.0539 9.79195 14.5079 10.224 13.9619 10.8C13.4939 11.448 13.1819 12.024 13.0259 11.952ZM9.98393 12.168C9.90593 12.168 9.98393 11.52 10.4519 10.944C10.8419 10.368 11.3879 9.93595 11.4659 10.008C11.5439 10.08 11.2319 10.512 10.8419 11.088C10.3739 11.736 10.0619 12.24 9.98393 12.168ZM6.47393 12.816C6.23993 12.672 7.56593 10.656 7.79993 10.8C7.87793 10.872 7.72193 11.376 7.33193 11.88C6.94193 12.456 6.55193 12.888 6.47393 12.816ZM3.11993 11.88C3.04193 11.808 3.74393 11.376 4.67993 11.232C5.61593 11.088 6.39593 11.232 6.39593 11.376C6.39593 11.448 5.61593 11.448 4.75793 11.592C3.89993 11.736 3.19793 11.952 3.11993 11.88ZM9.51593 10.368C9.43793 10.44 8.81393 10.008 7.95593 9.71995C7.01993 9.43195 6.23993 9.35995 6.23993 9.28795C6.23993 9.21595 7.09793 9.07195 8.03393 9.43195C9.04793 9.71995 9.59393 10.296 9.51593 10.368Z" fill="black"/>
<path opacity="0.1" d="M33.54 22.608C33.462 22.248 33.852 22.176 33.93 22.536C34.008 22.896 33.618 22.968 33.54 22.608ZM32.916 24.336C32.994 24.12 33.384 24.192 33.306 24.408C33.228 24.696 32.838 24.624 32.916 24.336ZM31.278 24.408C31.356 24.264 31.746 24.408 31.668 24.552C31.59 24.696 31.2 24.552 31.278 24.408ZM31.98 26.424C31.98 26.208 32.448 26.208 32.37 26.496C32.292 26.784 31.98 26.64 31.98 26.424ZM33.072 26.352C33.15 26.136 33.54 26.28 33.462 26.496C33.306 26.64 32.994 26.568 33.072 26.352ZM29.016 28.152C29.094 27.792 29.484 27.864 29.406 28.224C29.328 28.584 28.938 28.512 29.016 28.152ZM29.796 25.704C29.874 25.488 30.264 25.632 30.186 25.848C30.108 26.064 29.718 25.92 29.796 25.704ZM26.598 27.864C26.754 27.576 27.144 27.792 26.988 28.008C26.832 28.296 26.442 28.152 26.598 27.864ZM25.194 30.384C24.804 30.672 24.492 30.384 24.96 30.096C25.35 29.736 25.584 30.024 25.194 30.384ZM26.442 30.672C26.286 30.744 26.13 30.384 26.286 30.312C26.52 30.312 26.676 30.6 26.442 30.672ZM29.328 30.312C29.016 30.6 28.782 30.312 29.016 30.024C29.328 29.808 29.64 30.024 29.328 30.312ZM31.98 28.368C31.746 28.584 31.434 28.296 31.746 28.08C31.98 27.864 32.214 28.152 31.98 28.368ZM28.782 27.144C28.626 27.288 28.314 27 28.47 26.856C28.626 26.784 28.938 27 28.782 27.144ZM27.924 29.232C27.846 29.304 27.534 29.088 27.612 29.016C27.612 28.944 28.002 29.16 27.924 29.232ZM24.804 28.944C24.648 29.016 24.492 28.728 24.57 28.656C24.726 28.512 24.96 28.872 24.804 28.944ZM22.386 30.816C22.23 30.888 22.074 30.528 22.23 30.456C22.386 30.384 22.542 30.744 22.386 30.816ZM22.932 29.592C22.542 29.736 22.386 29.376 22.776 29.232C23.166 29.088 23.322 29.448 22.932 29.592ZM19.968 31.104C19.5 31.176 19.422 30.816 19.89 30.744C20.28 30.672 20.358 31.032 19.968 31.104ZM20.28 29.808C20.046 29.808 20.046 29.448 20.202 29.448C20.436 29.448 20.514 29.808 20.28 29.808ZM17.004 30.456C16.692 30.384 16.77 30.024 17.082 30.096C17.394 30.168 17.316 30.528 17.004 30.456ZM34.71 20.232C34.71 19.872 35.1 19.8 35.1 20.232C35.178 20.592 34.788 20.592 34.71 20.232ZM34.554 18.576C34.476 18.144 34.866 18.072 34.944 18.504C35.022 18.864 34.632 18.936 34.554 18.576ZM35.1 21.96C35.1 21.6 35.49 21.6 35.49 21.96C35.49 22.248 35.1 22.248 35.1 21.96ZM34.554 23.616C34.554 23.4 34.944 23.4 34.944 23.616C35.022 23.832 34.554 23.832 34.554 23.616ZM35.802 25.416C35.646 25.344 35.724 24.768 35.88 24.696C35.958 24.624 36.192 24.84 36.114 25.056C36.114 25.344 35.88 25.488 35.802 25.416ZM36.504 21.96C36.348 21.888 36.192 21.312 36.348 21.168C36.426 21.096 36.66 21.24 36.738 21.528C36.816 21.744 36.66 21.96 36.504 21.96ZM34.944 27.288C34.788 27.432 34.554 27.144 34.632 27C34.788 26.856 35.022 27.144 34.944 27.288ZM33.462 29.16C33.306 29.232 33.072 28.944 33.228 28.872C33.384 28.728 33.618 29.016 33.462 29.16ZM31.044 31.248C30.732 31.392 30.576 31.032 30.888 30.888C31.122 30.816 31.356 31.104 31.044 31.248ZM26.676 32.472C26.442 32.4 26.676 32.04 26.832 32.112C27.144 32.184 26.91 32.544 26.676 32.472ZM24.336 32.904C24.024 32.832 24.18 32.472 24.414 32.544C24.726 32.616 24.648 32.976 24.336 32.904Z" fill="black"/>
<path opacity="0.1" d="M16.692 19.584C16.302 19.368 16.458 19.08 16.848 19.224C17.238 19.368 17.082 19.8 16.692 19.584ZM17.316 18.72C17.004 18.576 17.16 18.216 17.55 18.432C17.862 18.576 17.628 18.936 17.316 18.72ZM18.174 17.928C18.096 17.928 18.018 17.784 18.096 17.712C18.174 17.64 18.252 17.568 18.33 17.568C18.486 17.64 18.33 18 18.174 17.928Z" fill="white"/>
<path opacity="0.1" d="M19.5566 16.8248C19.6766 16.8691 19.8128 16.8153 19.8608 16.7045C19.9088 16.5937 19.8504 16.468 19.7304 16.4237C19.6105 16.3794 19.4743 16.4333 19.4263 16.5441C19.3783 16.6548 19.4366 16.7805 19.5566 16.8248Z" fill="white"/>
<path opacity="0.1" d="M20.9229 15.7678C21.0467 15.8021 21.1772 15.7373 21.2143 15.623C21.2514 15.5087 21.1812 15.3883 21.0574 15.3541C20.9336 15.3198 20.8032 15.3846 20.766 15.4989C20.7289 15.6131 20.7991 15.7336 20.9229 15.7678Z" fill="white"/>
<path opacity="0.1" d="M22.1916 15.0499C22.361 15.0793 22.5176 15.008 22.5414 14.8907C22.5652 14.7735 22.4472 14.6547 22.2778 14.6253C22.1085 14.596 21.9519 14.6673 21.9281 14.7846C21.9042 14.9018 22.0222 15.0206 22.1916 15.0499Z" fill="white"/>
<path opacity="0.1" d="M20.6715 17.7634C20.8315 17.8225 21.0001 17.7806 21.0481 17.6698C21.0961 17.5591 21.0053 17.4214 20.8453 17.3623C20.6854 17.3033 20.5168 17.3452 20.4688 17.4559C20.4208 17.5667 20.5116 17.7044 20.6715 17.7634Z" fill="white"/>
<path opacity="0.1" d="M18.876 19.1521C18.642 19.0801 18.72 18.7201 19.032 18.7921C19.188 18.8641 19.11 19.2241 18.876 19.1521ZM17.862 20.8801C17.862 20.8081 18.252 20.8081 18.252 20.8801C18.252 20.9521 17.862 20.9521 17.862 20.8801ZM15.678 21.9601C15.678 21.8881 15.756 21.8161 15.834 21.8161C15.912 21.7441 16.068 21.8161 16.068 21.8161C16.068 21.9601 15.678 22.1041 15.678 21.9601ZM20.514 19.8721C20.202 19.5841 20.514 19.3681 20.826 19.5841C21.06 19.8721 20.748 20.1601 20.514 19.8721Z" fill="white"/>
<path opacity="0.1" d="M21.7261 18.05C21.8357 18.1132 21.98 18.0825 22.0485 17.9813C22.117 17.8801 22.0837 17.7469 21.9741 17.6837C21.8645 17.6205 21.7201 17.6512 21.6516 17.7524C21.5832 17.8536 21.6165 17.9868 21.7261 18.05Z" fill="white"/>
<path opacity="0.1" d="M22.4141 16.9331C22.4845 16.9789 22.602 16.9369 22.6763 16.8394C22.7507 16.7418 22.7539 16.6256 22.6835 16.5798C22.613 16.5341 22.4956 16.576 22.4212 16.6736C22.3468 16.7711 22.3436 16.8873 22.4141 16.9331Z" fill="white"/>
<path opacity="0.1" d="M17.2381 16.1281H17.6281C17.7061 16.1281 17.2381 16.1281 17.2381 16.1281H17.6281C17.6281 16.1281 17.3161 16.1281 17.2381 16.1281ZM16.1461 17.5681V17.9281C16.0681 17.9281 16.0681 17.5681 16.1461 17.5681ZM14.5081 19.2961C14.5081 19.2241 14.8981 19.0801 14.8981 19.2241C14.9761 19.2961 14.5861 19.4401 14.5081 19.2961ZM14.9761 21.1681C14.7421 21.0961 14.8201 20.7361 15.0541 20.8081C15.3661 20.8801 15.2881 21.2401 14.9761 21.1681ZM16.6921 21.2401C16.5361 21.1681 16.6921 20.8081 16.8481 20.8801C17.0821 20.9521 16.9261 21.3121 16.6921 21.2401ZM18.4081 22.6081C18.3301 22.6081 18.4081 22.2481 18.4861 22.2481C18.6421 22.3201 18.5641 22.6801 18.4081 22.6081ZM22.2301 19.6561C21.8401 19.5841 21.9961 19.2241 22.3861 19.2961C22.6981 19.3681 22.6201 19.7281 22.2301 19.6561Z" fill="white"/>
<path opacity="0.1" d="M20.1179 18.7817C20.1579 18.7965 20.2292 18.7187 20.2772 18.6079C20.3252 18.4971 20.3317 18.3954 20.2917 18.3806C20.2517 18.3659 20.1803 18.4437 20.1323 18.5544C20.0844 18.6652 20.0779 18.767 20.1179 18.7817Z" fill="white"/>
<path opacity="0.1" d="M18.876 20.232C18.798 20.16 18.798 20.016 18.876 19.944C18.954 19.872 19.11 19.944 19.188 20.016C19.422 20.232 19.032 20.448 18.876 20.232ZM20.514 21.528C20.436 21.456 20.826 21.24 20.904 21.384C20.904 21.456 20.514 21.672 20.514 21.528ZM16.458 22.968C16.302 22.608 16.692 22.464 16.848 22.824C17.004 23.256 16.614 23.328 16.458 22.968Z" fill="white"/>
<path opacity="0.1" d="M14.139 22.5292C14.1531 22.6077 14.2679 22.6554 14.3954 22.6358C14.5229 22.6161 14.6148 22.5366 14.6006 22.4582C14.5864 22.3798 14.4716 22.3321 14.3441 22.3517C14.2167 22.3713 14.1248 22.4508 14.139 22.5292Z" fill="white"/>
</svg>
